<svg width="40" height="40" fill="none" xmlns="http://www.w3.org/2000/svg"><path d="M20 0C12.234 0 5.916 6.417 5.916 14.305v11.39C5.916 33.584 12.234 40 20 40c7.765 0 14.084-6.397 14.084-14.26V14.304C34.084 6.417 27.765 0 20 0zm11.435 25.74c0 6.402-5.13 11.611-11.435 11.611-6.305 0-11.435-5.229-11.435-11.656v-11.39c0-6.427 5.13-11.656 11.435-11.656 6.305 0 11.435 5.229 11.435 11.656v11.434z" fill="#fff"/><path d="M20 10.95c-.732 0-1.325.592-1.325 1.324v4.636a1.324 1.324 0 102.65 0v-4.636c0-.732-.593-1.325-1.325-1.325z" fill="#fff"/></svg>